# xmcd
#
# Track frame offsets:
#	150
#	18725
#	37675
#	54507
#	67802
#	86270
#	99232
#	115090
#	130390
#	145047
#	161155
#	181272
#	198027
#	209322
#
# Disc length: 2959
#
# Revision: 3
# Processed by: cddbd v1.5.1PL0 Copyright (c) Steve Scherf et al.
# Submitted via: FreeRIP 2.52 
# Normalized: r2:DSETVAR1,TDELIM( - )
#
DISCID=ae0b8d0e
DTITLE=Various Artist - Hits Again
DYEAR=1973
DGENRE=Ballad
TTITLE0=Mark Davis - Don´t Le Me Cry
TTITLE1=The Lights Reflections - Tell Me Once Again
TTITLE2=Dave MacLean - Me And You
TTITLE3=Morris Albert - She´s My Girl
TTITLE4=Paul Denver - Rain Memories
TTITLE5=Paul Bryan - Listen
TTITLE6=Manchester - My Dear
TTITLE7=Lee Jackson - Hey Girl
TTITLE8=Pholhas - She Made Me Cry
TTITLE9=Sanday - I´am Gonna Get Married
TTITLE10=All Together - He
TTITLE11=Dave D. Robinson - Words Of Love [Dialogo D´Amore
TTITLE12=Menphis - Swet Daisy
TTITLE13=The Victoria Projects - Joy To The World
EXTD=Coletanea de Sucessos dos Anos 70 - Gravado pela gravadora Som Livre no Brasil
EXTT0=
EXTT1=
EXTT2=
EXTT3=
EXTT4=
EXTT5=
EXTT6=
EXTT7=
EXTT8=
EXTT9=
EXTT10=
EXTT11=
EXTT12=
EXTT13=
PLAYORDER=
